Normalized EMG Linear Envelopes
nRows=237
nColumns=4

endheader
time	 med_gas_r	  soleus_r	 tib_ant_r	
3.42619	  0.113775	  0.144019	  0.065489	
3.45946	  0.114312	  0.142243	  0.064904	
3.49272	  0.114922	  0.140292	  0.064620	
3.52598	  0.115168	  0.138284	  0.064615	
3.55925	  0.115105	  0.136133	  0.064796	
3.59251	  0.114976	  0.134169	  0.065609	
3.62578	  0.114852	  0.132963	  0.067220	
3.65904	  0.114331	  0.132689	  0.068934	
3.6923	  0.112891	  0.132914	  0.069898	
3.72557	  0.110771	  0.132316	  0.070003	
3.75883	  0.108045	  0.130679	  0.069679	
3.7921	  0.105088	  0.129043	  0.068841	
3.82536	  0.102331	  0.128261	  0.067442	
3.85862	  0.100197	  0.128527	  0.065662	
3.89189	  0.099081	  0.130103	  0.063862	
3.92515	  0.098925	  0.133112	  0.062677	
3.95842	  0.099427	  0.136653	  0.062523	
3.99168	  0.100509	  0.139968	  0.063463	
4.02494	  0.102195	  0.142345	  0.064926	
4.05821	  0.104525	  0.143950	  0.066199	
4.09147	  0.107166	  0.145278	  0.067001	
4.12474	  0.109823	  0.146660	  0.067012	
4.158	  0.111921	  0.148504	  0.066250	
4.19126	  0.112989	  0.150549	  0.065366	
4.22453	  0.113408	  0.151768	  0.064670	
4.25779	  0.113425	  0.152020	  0.064203	
4.29106	  0.113288	  0.152187	  0.064460	
4.32432	  0.113572	  0.153269	  0.066312	
4.35758	  0.114869	  0.155494	  0.070805	
4.39085	  0.117896	  0.157810	  0.079671	
4.42411	  0.123230	  0.159342	  0.094604	
4.45738	  0.130824	  0.159731	  0.116855	
4.49064	  0.140406	  0.159413	  0.146798	
4.5239	  0.151858	  0.158978	  0.183527	
4.55717	  0.164392	  0.159526	  0.224474	
4.59043	  0.176348	  0.161397	  0.265038	
4.6237	  0.185903	  0.163391	  0.300822	
4.65696	  0.193573	  0.164687	  0.330415	
4.69022	  0.201703	  0.166168	  0.352776	
4.72349	  0.211499	  0.168354	  0.367285	
4.75675	  0.223181	  0.171391	  0.374877	
4.79002	  0.235115	  0.175247	  0.376350	
4.82328	  0.244598	  0.179292	  0.375387	
4.85654	  0.251338	  0.183028	  0.375593	
4.88981	  0.257720	  0.186937	  0.379725	
4.92307	  0.264858	  0.191501	  0.390626	
4.95634	  0.272366	  0.196787	  0.407637	
4.9896	  0.278179	  0.202589	  0.430098	
5.02286	  0.280943	  0.208158	  0.457363	
5.05613	  0.283503	  0.213091	  0.484434	
5.08939	  0.287613	  0.217252	  0.502556	
5.12266	  0.292715	  0.221106	  0.506244	
5.15592	  0.296836	  0.224220	  0.494808	
5.18918	  0.299947	  0.226048	  0.472969	
5.22245	  0.302576	  0.226359	  0.447089	
5.25571	  0.304281	  0.225174	  0.421831	
5.28898	  0.306057	  0.223641	  0.398366	
5.32224	  0.309306	  0.222255	  0.377034	
5.3555	  0.313638	  0.220567	  0.358242	
5.38877	  0.318308	  0.219334	  0.343490	
5.42203	  0.322318	  0.219851	  0.333135	
5.4553	  0.326787	  0.222442	  0.326111	
5.48856	  0.331098	  0.226412	  0.321170	
5.52182	  0.333556	  0.230852	  0.316037	
5.55509	  0.335916	  0.235059	  0.308237	
5.58835	  0.339141	  0.238261	  0.297658	
5.62162	  0.341338	  0.239766	  0.288788	
5.65488	  0.343325	  0.240865	  0.285692	
5.68814	  0.346779	  0.242397	  0.290333	
5.72141	  0.351271	  0.244198	  0.303986	
5.75467	  0.354315	  0.246264	  0.325715	
5.78794	  0.355127	  0.249313	  0.352880	
5.8212	  0.355650	  0.253740	  0.382223	
5.85446	  0.357073	  0.259530	  0.410968	
5.88773	  0.359884	  0.266079	  0.434509	
5.92099	  0.362343	  0.272040	  0.449896	
5.95426	  0.361131	  0.276563	  0.457943	
5.98752	  0.356668	  0.280303	  0.461140	
6.02078	  0.351976	  0.283286	  0.460710	
6.05405	  0.348668	  0.284882	  0.457532	
6.08731	  0.346009	  0.284873	  0.456612	
6.12058	  0.343437	  0.283755	  0.460833	
6.15384	  0.341342	  0.281647	  0.468371	
6.1871	  0.339787	  0.278374	  0.474756	
6.22037	  0.339428	  0.274821	  0.475556	
6.25363	  0.338727	  0.272407	  0.469831	
6.2869	  0.336238	  0.271499	  0.461590	
6.32016	  0.334253	  0.271237	  0.455287	
6.35342	  0.333385	  0.270512	  0.451889	
6.38669	  0.331687	  0.268938	  0.450216	
6.41995	  0.329656	  0.266854	  0.448642	
6.45322	  0.327904	  0.264298	  0.445825	
6.48648	  0.325408	  0.261247	  0.439081	
6.51974	  0.323445	  0.258322	  0.426295	
6.55301	  0.323112	  0.256458	  0.408351	
6.58627	  0.325001	  0.255743	  0.390692	
6.61954	  0.328987	  0.255786	  0.378444	
6.6528	  0.335077	  0.257443	  0.373103	
6.68606	  0.341381	  0.261253	  0.372577	
6.71933	  0.346328	  0.266833	  0.373626	
6.75259	  0.350700	  0.273459	  0.377042	
6.78586	  0.353959	  0.280886	  0.383516	
6.81912	  0.353782	  0.288008	  0.389703	
6.85238	  0.350257	  0.292779	  0.390719	
6.88565	  0.345616	  0.294573	  0.383105	
6.91891	  0.340437	  0.294563	  0.368901	
6.95218	  0.335011	  0.295027	  0.351795	
6.98544	  0.330717	  0.297089	  0.334156	
7.0187	  0.328592	  0.299296	  0.317958	
7.05197	  0.329940	  0.300316	  0.304537	
7.08523	  0.335185	  0.300288	  0.292033	
7.1185	  0.342717	  0.299198	  0.279338	
7.15176	  0.350805	  0.296821	  0.267654	
7.18502	  0.359960	  0.294409	  0.257154	
7.21829	  0.369125	  0.292430	  0.246601	
7.25155	  0.376536	  0.291136	  0.236513	
7.28482	  0.382626	  0.290890	  0.227966	
7.31808	  0.386080	  0.292798	  0.222348	
7.35134	  0.385023	  0.297248	  0.219690	
7.38461	  0.379946	  0.303149	  0.218621	
7.41787	  0.371438	  0.308793	  0.218379	
7.45114	  0.361787	  0.312862	  0.218321	
7.4844	  0.354100	  0.316270	  0.217151	
7.51766	  0.348284	  0.320183	  0.213658	
7.55093	  0.343618	  0.323871	  0.208194	
7.58419	  0.340651	  0.326998	  0.202600	
7.61746	  0.337954	  0.328933	  0.198465	
7.65072	  0.335440	  0.328963	  0.196494	
7.68398	  0.332972	  0.326881	  0.196830	
7.71725	  0.330212	  0.323787	  0.199200	
7.75051	  0.326327	  0.321370	  0.203675	
7.78378	  0.321769	  0.322103	  0.209499	
7.81704	  0.318697	  0.326854	  0.215320	
7.8503	  0.316400	  0.333713	  0.220073	
7.88357	  0.314458	  0.339508	  0.223496	
7.91683	  0.313046	  0.341263	  0.225134	
7.9501	  0.311594	  0.337747	  0.223694	
7.98336	  0.308955	  0.331097	  0.219046	
8.01662	  0.305199	  0.322941	  0.212465	
8.04989	  0.301213	  0.313838	  0.205676	
8.08315	  0.297073	  0.303932	  0.200004	
8.11642	  0.293201	  0.293540	  0.196112	
8.14968	  0.289464	  0.284124	  0.194839	
8.18294	  0.286646	  0.277865	  0.196114	
8.21621	  0.285911	  0.275539	  0.199253	
8.24947	  0.287631	  0.277126	  0.204221	
8.28274	  0.292117	  0.282678	  0.211698	
8.316	  0.298426	  0.291042	  0.220901	
8.34926	  0.304024	  0.299845	  0.229828	
8.38253	  0.307643	  0.307562	  0.236554	
8.41579	  0.309916	  0.315230	  0.240270	
8.44906	  0.311545	  0.324120	  0.240323	
8.48232	  0.311727	  0.333204	  0.237170	
8.51558	  0.308580	  0.340188	  0.232087	
8.54885	  0.302426	  0.342891	  0.226673	
8.58211	  0.296572	  0.339736	  0.222101	
8.61538	  0.293354	  0.334049	  0.218962	
8.64864	  0.292162	  0.328554	  0.216861	
8.6819	  0.291137	  0.322877	  0.215687	
8.71517	  0.289545	  0.315322	  0.214917	
8.74843	  0.288207	  0.305038	  0.213131	
8.7817	  0.289045	  0.293716	  0.208804	
8.81496	  0.293462	  0.284976	  0.201654	
8.84822	  0.300929	  0.281469	  0.192778	
8.88149	  0.310280	  0.282475	  0.184167	
8.91475	  0.320832	  0.286124	  0.177787	
8.94802	  0.331719	  0.292059	  0.175072	
8.98128	  0.343419	  0.300604	  0.176405	
9.01454	  0.355519	  0.310355	  0.181051	
9.04781	  0.365964	  0.319965	  0.188890	
9.08107	  0.373567	  0.329424	  0.198849	
9.11434	  0.379436	  0.338103	  0.207593	
9.1476	  0.384062	  0.344617	  0.211950	
9.18086	  0.385579	  0.349238	  0.212677	
9.21413	  0.384413	  0.353381	  0.212151	
9.24739	  0.381805	  0.356749	  0.213118	
9.28066	  0.378796	  0.360955	  0.217433	
9.31392	  0.374734	  0.366778	  0.224554	
9.34718	  0.369214	  0.372840	  0.232505	
9.38045	  0.362018	  0.377111	  0.239552	
9.41371	  0.353336	  0.377171	  0.245050	
9.44698	  0.345530	  0.373288	  0.248000	
9.48024	  0.342272	  0.367320	  0.247034	
9.5135	  0.343963	  0.361853	  0.243151	
9.54677	  0.347300	  0.357895	  0.237375	
9.58003	  0.349992	  0.354064	  0.232010	
9.6133	  0.353288	  0.350153	  0.228936	
9.64656	  0.358531	  0.346289	  0.228638	
9.67982	  0.365632	  0.343005	  0.229896	
9.71309	  0.372757	  0.341866	  0.231212	
9.74635	  0.376498	  0.344284	  0.231747	
9.77962	  0.377633	  0.350644	  0.230472	
9.81288	  0.378809	  0.359639	  0.227189	
9.84614	  0.379127	  0.370418	  0.222305	
9.87941	  0.374782	  0.383503	  0.216758	
9.91267	  0.364124	  0.399691	  0.211751	
9.94594	  0.351604	  0.417466	  0.208080	
9.9792	  0.343025	  0.434514	  0.206572	
10.0125	  0.342090	  0.451033	  0.207438	
10.0457	  0.348593	  0.468649	  0.210007	
10.079	  0.359013	  0.484641	  0.214198	
10.1123	  0.370058	  0.494045	  0.220035	
10.1455	  0.381088	  0.494146	  0.226458	
10.1788	  0.391607	  0.486701	  0.232048	
10.212	  0.399439	  0.474928	  0.235214	
10.2453	  0.401701	  0.460902	  0.234376	
10.2786	  0.399605	  0.445378	  0.229888	
10.3118	  0.393696	  0.427357	  0.223392	
10.3451	  0.384335	  0.405727	  0.216422	
10.3784	  0.370811	  0.382269	  0.209874	
10.4116	  0.352735	  0.359547	  0.204534	
10.4449	  0.332749	  0.339195	  0.200728	
10.4782	  0.314866	  0.321317	  0.198161	
10.5114	  0.301993	  0.306296	  0.196862	
10.5447	  0.294315	  0.293250	  0.196621	
10.578	  0.288168	  0.280162	  0.196364	
10.6112	  0.282493	  0.264972	  0.194889	
10.6445	  0.278452	  0.247789	  0.191491	
10.6777	  0.276218	  0.230795	  0.185480	
10.711	  0.275581	  0.216847	  0.177950	
10.7443	  0.275476	  0.207341	  0.170123	
10.7775	  0.273873	  0.202814	  0.162431	
10.8108	  0.271756	  0.202635	  0.156145	
10.8441	  0.269248	  0.204737	  0.152586	
10.8773	  0.265134	  0.205858	  0.151932	
10.9106	  0.258876	  0.204757	  0.153686	
10.9439	  0.251198	  0.201978	  0.156972	
10.9771	  0.244252	  0.197687	  0.160212	
11.0104	  0.240154	  0.192142	  0.161440	
11.0436	  0.238546	  0.186154	  0.159352	
11.0769	  0.236571	  0.179983	  0.154749	
11.1102	  0.230544	  0.173164	  0.149631	
11.1434	  0.218960	  0.165287	  0.145385	
11.1767	  0.205547	  0.157632	  0.141446	
11.21	  0.194686	  0.151154	  0.136450	
11.2432	  0.189214	  0.146517	  0.130568	
11.2765	  0.189425	  0.144198	  0.124928	
